<svg version="1.2" xmlns="http://www.w3.org/2000/svg" viewBox="0 0 2944 2460" width="2944" height="2460">
	<title>logo-movistar (1)</title>
	<style>
		.s0 { fill: #ffffff } 
	</style>
	<g id="Background">
		<path id="Path 1" class="s0" d="m2038.5 553.7c-2.2 0.1-9 1-15 1.9-6 0.9-16.8 3.1-24 4.9-7.2 1.8-18 5.1-24 7.3-6 2.2-15.3 5.8-20.5 8.1-5.2 2.3-15.3 7.2-22.5 10.9-7.2 3.8-18 10.1-24 14.2-6 4-16.4 11.4-22.9 16.4-6.6 5-16.5 13.4-22 18.6-5.6 5.3-14.3 13.9-19.4 19.3-5 5.3-13.4 15-18.5 21.4-5.2 6.5-12.8 16.8-16.9 22.8-4.2 6-10.5 15.8-14.2 21.7-3.6 6-10.7 19-15.7 29-5 10.1-13.9 28.6-19.6 41.3-5.8 12.6-14.4 32.2-19.3 43.5-4.8 11.3-11.5 27-14.8 35-3.4 8-10.5 24.8-15.7 37.5-5.3 12.6-13.6 32.9-18.5 45-4.9 12.1-15.9 39.8-24.5 61.5-8.6 21.7-18.8 47.2-22.7 56.5-3.8 9.3-10.9 25.1-15.8 35-4.9 9.9-12.4 23.2-16.6 29.5-4.2 6.3-10.5 14.9-13.9 19-3.4 4.1-10.4 11.5-15.6 16.3-5.2 4.9-13.4 11.6-18.4 15-5 3.4-13 8-18 10.3-5 2.4-12.4 5.4-16.5 6.7-4.1 1.4-12.9 3.7-19.5 5.3-11.1 2.6-13.5 2.8-31.5 2.8-15.9-0.1-21.3-0.5-29.5-2.2-5.5-1.2-15-3.8-21-5.8-6-2-15-5.7-20-8.2-5-2.4-12.6-6.7-17-9.5-4.4-2.8-11.6-7.8-16-11.1-4.4-3.3-11.8-9.2-16.5-13.2-4.7-3.9-12.7-11.6-17.9-17-5.1-5.4-13.5-15.1-18.6-21.4-5-6.3-11.6-14.9-14.5-19-3-4.1-12.3-18.5-20.8-32-8.6-13.5-20.1-31.9-25.7-41-5.6-9.1-17.7-28.2-26.9-42.5-9.3-14.3-25.1-38.3-35.2-53.3-10.1-14.9-20.3-29.9-22.7-33.2-2.3-3.3-8.4-11.7-13.5-18.7-5.1-7.1-10.1-13.9-11-15.3-0.9-1.4-3.9-5.4-6.6-9-2.7-3.6-10.2-13-16.5-21-6.4-8-19.9-22.9-30.1-33.1-10.2-10.3-23-22.7-28.5-27.6-5.5-4.9-14.5-12.5-20-16.9-5.5-4.3-13.8-10.4-18.5-13.3-4.7-3-12.1-7.4-16.5-9.7-4.4-2.4-13-6.4-19-8.9-6-2.5-15.5-5.9-21-7.5-5.5-1.6-15.6-4-22.5-5.4-6.9-1.4-17.5-3-23.5-3.5-6-0.6-18.6-1.1-28-1.1-9.4 0-22.2 0.6-28.5 1.4-6.3 0.8-16.2 2.4-22 3.6-5.8 1.2-16.6 4-24 6.2-7.4 2.1-17.8 5.7-23 7.9-5.2 2.2-15.1 7-22 10.6-6.9 3.6-17 9.5-22.5 13.1-5.5 3.5-12.7 8.5-16 11-3.3 2.5-9.4 7.5-13.5 11.1-4.1 3.6-11 9.9-15.4 14.1-4.3 4.1-12 12.2-17 18-5.1 5.8-12.2 14.3-15.8 19-3.6 4.7-10.8 15-16 23-5.2 8-13.8 22.4-19.1 32-5.3 9.6-13.1 25.1-17.3 34.5-4.2 9.3-10.4 24.2-13.9 33-3.4 8.8-8.8 23.6-11.8 33-3.1 9.3-8 25.5-11 36-3 10.5-7.8 28.9-10.5 41-2.8 12.1-6.9 31-9.1 42-2.2 11-5.6 30.6-7.5 43.5-2 12.9-4.7 33-6 44.5-1.4 11.5-3 27.1-3.6 34.5-0.6 7.4-1.4 33.1-1.7 57-0.3 27.5-0.1 51.2 0.6 64.5 0.6 11.5 2.1 30.5 3.2 42 1.1 11.5 3.1 28.9 4.4 38.5 1.3 9.6 3.1 22.2 4 28 0.9 5.8 2.7 16.6 4 24 1.4 7.4 3.6 19.1 4.9 26 1.4 6.9 3.9 19.2 5.6 27.5 1.7 8.2 4.9 22.7 7.1 32 2.2 9.3 6.7 27.3 10 40 3.3 12.7 8 30 10.4 38.5 2.4 8.5 6.9 23.6 10 33.5 3.1 9.9 6.1 19.6 6.7 21.5 0.6 1.9 6.4 18.8 13 37.5 6.6 18.7 15.6 43 20 54 4.4 11 10.1 24.5 12.7 30 2.6 5.5 7.3 14.5 10.6 20 3.2 5.5 8.4 13.8 11.5 18.5 3.1 4.7 8.6 12.1 12.1 16.4 3.5 4.4 10 10.8 14.4 14.3 4.4 3.5 11.8 8.3 16.5 10.7 4.7 2.4 11.4 5.3 15 6.4 3.6 1.2 10.5 2.8 15.5 3.7 5 0.8 13.3 1.5 18.5 1.5 5.2 0 12.9-0.7 17-1.4 4.1-0.7 10.6-2.6 14.5-4.1 3.9-1.6 10.1-4.8 14-7.1 3.9-2.4 9.7-6.7 12.9-9.6 3.2-2.9 8.5-9.3 11.8-14.3 3.2-5 7.2-12.7 8.8-17.3 1.7-4.5 3.9-12.8 5.1-18.5 1.8-8.9 2-12.5 1.6-28.2-0.3-10-1.2-22-2.1-27-0.9-5-3-15.1-4.7-22.5-1.6-7.4-5.5-22.7-8.5-34-3.1-11.3-12.5-43-20.9-70.5-8.4-27.5-18.1-59.2-21.5-70.5-3.5-11.3-8.4-28.4-11.1-38-2.7-9.6-7.4-27.2-10.4-39-2.9-11.8-6.7-28.3-8.4-36.5-1.6-8.3-4.2-23.1-5.8-33-2.6-16.9-2.8-19.8-2.7-48.5 0-27.7 0.2-31.5 2.3-41 1.2-5.8 3.4-13.9 4.8-18 1.4-4.1 4.1-10.7 6.1-14.5 2.4-4.6 6.2-9.6 11.2-14.6 5.3-5.3 9.4-8.5 14-10.7 3.6-1.7 10.5-4.2 15.5-5.6 5-1.5 12.1-2.9 16-3.3 5.7-0.5 8.4-0.2 14.5 1.7 4.1 1.2 10 3.5 13 5 3 1.5 9.1 5.5 13.5 8.8 4.4 3.3 11.6 9.8 16.1 14.4 4.4 4.5 11 12.1 14.6 16.8 3.6 4.7 9.4 12.8 13 18 3.6 5.2 10.6 16.2 15.6 24.5 4.9 8.2 35.9 62 68.7 119.5 32.9 57.5 64.5 112.6 70.3 122.5 5.7 9.9 15.6 26.8 22 37.5 6.3 10.7 14.2 24 17.5 29.5 3.4 5.5 9.2 14.7 13.1 20.5 3.8 5.8 9.4 13.9 12.5 18 3 4.1 9.7 12.7 15 19 5.2 6.3 13.8 15.9 19.1 21.4 5.2 5.4 14.5 14.2 20.5 19.5 6 5.4 14.8 12.7 19.5 16.2 4.7 3.6 12.5 9.2 17.5 12.6 5 3.3 14.4 9 21 12.6 6.6 3.6 15.8 8.3 20.5 10.5 4.7 2.2 12.5 5.5 17.5 7.5 5 1.9 13.3 4.9 18.5 6.6 5.2 1.6 13.1 3.9 17.5 5 4.4 1.1 12.7 2.9 18.5 4 5.8 1.1 15.9 2.8 22.5 3.6 6.6 0.9 19.4 1.8 28.5 2.2 9.1 0.3 25.9 0 37.5-0.6 11.5-0.7 26.6-1.9 33.5-2.7 6.9-0.8 17.9-2.3 24.5-3.4 6.6-1.2 18.1-3.5 25.5-5.1 7.4-1.7 18.2-4.4 24-6.1 5.8-1.7 15.9-5.1 22.5-7.5 6.6-2.4 19.7-8.2 29-12.8 9.3-4.6 23.1-12.4 30.5-17.3 7.4-4.9 17.5-12.1 22.5-16.1 5-4 14.8-12.9 21.8-19.9 7.1-7 17.2-18.1 22.6-24.7 5.3-6.6 12.6-16.5 16.3-22 3.7-5.5 9.7-15 13.3-21 3.7-6 10-17.8 14-26 4-8.3 9-19 11-24 2-5 6.1-15.3 9-23 2.9-7.7 10.1-29.3 16-48 5.9-18.7 16-51.1 22.5-72 6.6-20.9 17-53.8 23.3-73 6.3-19.3 15.6-46.7 20.7-61 5-14.3 12.3-34.3 16.2-44.5 3.8-10.2 10.8-28 15.5-39.5 4.6-11.5 12.6-30.2 17.5-41.5 5-11.3 12.6-27.3 16.8-35.5 4.2-8.3 10.1-19.3 13-24.5 2.9-5.2 10.8-17.8 17.5-28 6.8-10.2 15.7-22.8 19.9-28 4.2-5.2 11.4-13.5 15.9-18.4 4.5-5 12.7-13 18.2-17.8 5.5-4.9 13.6-11.3 18-14.2 4.4-2.9 11.6-7.1 16-9.4 4.4-2.2 11.6-5.2 16-6.6 4.4-1.4 12.3-3.3 17.5-4.2 7.8-1.3 11-1.4 18-0.5 4.7 0.6 11.7 2.2 15.5 3.5 3.8 1.3 9.2 3.4 12 4.6 2.7 1.2 8.2 4.2 12 6.7 3.8 2.5 10.1 7.6 13.8 11.2 3.8 3.6 8.8 9.5 11.1 13.1 2.4 3.6 5.7 9.2 7.3 12.5 1.7 3.3 4.5 10 6.3 15 1.7 5 4.2 13.5 5.6 19 1.3 5.5 3.4 17.4 4.6 26.5 2 15.2 2.2 20.4 2.2 67 0 37.4-0.5 57.1-1.7 76-1 14-3.1 39.9-4.7 57.5-1.6 17.6-4.5 46.2-6.4 63.5-1.9 17.3-4.1 37.6-4.8 45-0.7 7.6-1.3 25.7-1.3 41.5 0 25.3 0.3 29 2.3 38.5 1.3 5.8 3.4 14.3 4.9 19 1.4 4.7 4 11.7 5.7 15.5 1.8 3.8 5.2 9.9 7.6 13.5 2.4 3.6 6.9 9.1 9.9 12.3 3.1 3.3 8.5 8.1 12.1 10.7 3.6 2.7 9.4 6.2 13 7.8 3.6 1.6 9 3.7 12 4.5 3 0.9 9.6 2.1 14.5 2.8 5 0.6 12.6 0.9 17 0.5 4.4-0.3 11.8-1.5 16.5-2.7 4.8-1.1 13.7-4.6 20.5-7.9 7.5-3.6 15-8.3 20-12.3 4.4-3.5 11.4-10.2 15.6-14.8 4.2-4.6 9.8-11.6 12.4-15.4 2.6-3.8 7.4-12.3 10.6-18.8 3.3-6.4 7.9-17.7 10.3-25 2.4-7.2 5.4-17.2 6.6-22.2 1.1-5 3.2-14.4 4.5-21 1.3-6.6 3.3-17.4 4.4-24 1-6.6 2.2-14.3 2.5-17 0.4-2.8 1.3-9.5 2.1-15 0.8-5.5 2.4-17.4 3.4-26.5 1.1-9.1 2.9-25 4.1-35.5 1.1-10.5 2.7-27.1 3.5-37 0.8-9.9 1.9-27.5 2.4-39 0.6-11.5 1.3-32.9 1.7-47.5 0.3-14.8 0.1-41.2-0.5-60-0.6-18.4-1.6-41.6-2.2-51.5-0.5-9.9-1.9-29-2.9-42.5-1.1-13.5-2.9-32.8-4.1-43-1.1-10.2-3.8-31.1-6-46.5-2.2-15.4-5.1-34.3-6.5-42-1.3-7.7-3.4-18.7-4.5-24.5-1.1-5.8-3.6-17.7-5.5-26.5-2-8.8-5.3-23.2-7.5-32-2.2-8.8-6.1-23.2-8.6-32-2.4-8.8-6.5-22.5-9-30.5-2.5-8-6.9-21.5-10-30-3-8.5-10-27-15.6-41-5.5-14-14.5-34.3-19.8-45-5.4-10.7-13.6-25.8-18.4-33.5-4.8-7.7-11.9-18.5-15.8-24-4-5.5-10.6-14-14.7-19-4.1-4.9-11.1-12.8-15.5-17.4-4.4-4.6-12.9-12.6-19-17.8-6.1-5.2-16.2-12.9-22.5-17.1-6.3-4.2-17.3-10.6-24.5-14.3-7.2-3.6-19.3-8.6-27-11.2-7.7-2.5-19.6-5.7-26.5-7.1-6.9-1.4-17.4-3-23.5-3.6-6.1-0.5-17.3-0.9-25-0.8-7.7 0.1-15.8 0.3-18 0.5z"/>
	</g>
</svg>